# xmcd
#
# Track frame offsets: 
#        150
#        11778
#        24495
#        37362
#        49929
#        61596
#        73000
#        86091
#        99858
#        111788
#        123904
#        134933
#        148024
#        162503
#        173644
#        185048
#        195703
#        208420
#        220311
#        233853
#
# Disc length: 3288 seconds
#
# Revision: 0
# Processed by: cddbd v1.5.2PL0 Copyright (c) Steve Scherf et al.
# Submitted via: ExactAudioCopy v0.99pb4
#
DISCID=360cd614
DTITLE=Savannah Churchill - I Want to Be Loved
DYEAR=1945
DGENRE=R&B
TTITLE0=Daddy Daddy
TTITLE1=All Alone
TTITLE2=Foolishly Yours
TTITLE3=I Want To Be Loved
TTITLE4=I Can't Get Up The Nerve To Kiss You
TTITLE5=Sincerely Yours
TTITLE6=I'm Too Shy
TTITLE7=It's Too Late
TTITLE8=Tell Me So
TTITLE9=I Want Cry
TTITLE10=I'll Never Belong To Anyone Else
TTITLE11=Try To Forget
TTITLE12=How Could I Know
TTITLE13=It's Raining Down In Sunshine Lane
TTITLE14=Would You Hurt Me Now
TTITLE15=All Of Me
TTITLE16=Don't Try To Explain
TTITLE17=Savannah Sings The Blues
TTITLE18=I'll Never Be Free
TTITLE19=Get Yourself Another Guy
EXTD=
EXTT0=
EXTT1=
EXTT2=
EXTT3=
EXTT4=
EXTT5=
EXTT6=
EXTT7=
EXTT8=
EXTT9=
EXTT10=
EXTT11=
EXTT12=
EXTT13=
EXTT14=
EXTT15=
EXTT16=
EXTT17=
EXTT18=
EXTT19=
PLAYORDER=
